PathFileType  4	(X/Y/Z) C:\Users\antoi\Documents\MyRepositories\mobilecap\ResultsAnalysis
DataRate	CameraRate	NumFrames	NumMarkers	Units	OrigDataRate	OrigDataStartFrame	OrigNumFrames
100.0	100.0	4	51	mm	100.0	343	1371
Frame#	Time	r_knee			r_shank_antsup			r_ankle			r_calc			r_5meta			r_toe			L_knee			L_shank_antsup			L_ankle			L_calc			L_5meta			L_toe			r_sh2			r_sh3			r_sh4			L_sh2			L_sh3			r_thigh1			r_thigh2			r_thigh3			r_thigh4			r_thigh5			L_thigh1			L_thigh2			L_thigh3			L_thigh4			r.ASIS			r.PSIS			L.ASIS			L.PSIS			C7			R_Shoulder			L_Shoulder			R_Sternum			L_Sternum			R_humerus			R_elbow_med			R_elbow_lat			R_forearm			R_wrist_radius			R_wrist_ulna			L_humerus			L_elbow_med			L_elbow_lat			L_forearm			L_wrist_radius			L_wrist_ulna			R_HJC			L_HJC			R_HJC_reg			L_HJC_reg			
		X1	Y1	Z1	X2	Y2	Z2	X3	Y3	Z3	X4	Y4	Z4	X5	Y5	Z5	X6	Y6	Z6	X7	Y7	Z7	X8	Y8	Z8	X9	Y9	Z9	X10	Y10	Z10	X11	Y11	Z11	X12	Y12	Z12	X13	Y13	Z13	X14	Y14	Z14	X15	Y15	Z15	X16	Y16	Z16	X17	Y17	Z17	X18	Y18	Z18	X19	Y19	Z19	X20	Y20	Z20	X21	Y21	Z21	X22	Y22	Z22	X23	Y23	Z23	X24	Y24	Z24	X25	Y25	Z25	X26	Y26	Z26	X27	Y27	Z27	X28	Y28	Z28	X29	Y29	Z29	X30	Y30	Z30	X31	Y31	Z31	X32	Y32	Z32	X33	Y33	Z33	X34	Y34	Z34	X35	Y35	Z35	X36	Y36	Z36	X37	Y37	Z37	X38	Y38	Z38	X39	Y39	Z39	X40	Y40	Z40	X41	Y41	Z41	X42	Y42	Z42	X43	Y43	Z43	X44	Y44	Z44	X45	Y45	Z45	X46	Y46	Z46	X47	Y47	Z47	X48	Y48	Z48	X49	Y49	Z49	X50	Y50	Z50	X51	Y51	Z51	

343	3.42000000	-98.26776	458.45747	-412.00946	-47.86200	404.96737	-413.71686	-243.04309	96.19503	-428.95088	-308.74106	57.22477	-474.94029	-126.66715	40.35678	-389.26606	-85.53389	61.10836	-444.68229	-117.88619	454.81922	-773.39481	-94.62044	371.91202	-790.21077	-259.37793	96.91337	-751.41049	-323.86966	57.97306	-702.37318	-149.06013	41.37173	-791.77908	-101.69837	59.58719	-740.49244	-89.95818	297.23258	-430.55613	-115.49885	424.42594	-381.94029	-155.10186	315.46812	-377.56932	-174.50586	411.74716	-795.13590	-219.78075	297.18370	-789.70149	-262.38910	706.31974	-487.03029	-170.66719	646.46199	-467.41986	-173.42655	620.25434	-405.01489	-308.69942	666.40785	-394.77387	-218.93837	595.69137	-381.94642	-326.72268	691.39465	-779.59887	-226.27809	591.20620	-798.55685	-405.86828	610.29452	-769.08553	-304.34598	516.83982	-758.04894	-309.80726	767.28644	-473.88494	-491.85424	833.12424	-540.28511	-324.62295	757.75208	-715.41741	-497.10504	835.61471	-637.92280	-231.23748	1233.19208	-603.85385	-155.84165	1184.29302	-447.98931	-165.23463	1180.15209	-749.85987	-144.46531	1109.99911	-581.07069	-145.18166	1108.03126	-617.82384	-198.91947	986.10328	-320.55394	-277.37798	886.84146	-323.68359	-226.39541	906.75794	-276.17970	-110.46379	924.64858	-352.73231	-52.11438	962.69781	-423.98166	-33.66950	923.14073	-412.02796	-217.02076	981.71557	-864.99860	-280.63671	866.34117	-837.01292	-247.06605	881.78538	-901.19171	-117.21772	905.13720	-828.81277	-51.27958	948.43637	-765.15868	-36.65689	905.24133	-763.19265	-398.29950	699.51505	-505.09868	-420.13721	706.38538	-694.39092	-393.24061	700.50124	-504.77273	-401.82171	704.57120	-664.32514	
344	3.43000000	-100.45007	460.03405	-412.31483	-50.38073	406.51420	-414.00670	-243.24074	96.13932	-428.94579	-308.78188	57.20664	-474.88756	-126.69900	40.35681	-389.26549	-85.65227	61.22344	-444.66639	-120.24111	456.45489	-773.06183	-96.94939	373.29512	-790.09769	-259.69007	96.83015	-751.41069	-323.93033	57.91110	-702.40644	-149.08583	41.38155	-791.76389	-101.84398	59.76211	-740.54056	-91.76877	298.54092	-430.51939	-118.15458	425.62858	-382.37326	-156.82748	316.31696	-378.31227	-177.10076	412.45880	-794.92533	-220.10072	299.34092	-792.14883	-257.12001	713.29706	-486.78460	-167.35609	650.46281	-467.26227	-170.98839	624.20666	-404.80435	-305.16929	674.42031	-394.84881	-217.31140	600.89868	-382.09483	-321.75508	699.79193	-779.57210	-224.43744	596.68699	-798.77608	-403.29898	621.19876	-769.20062	-304.71446	524.41620	-758.09331	-305.16046	778.83496	-473.15404	-487.29161	844.07245	-540.35328	-319.71106	769.35001	-715.44775	-492.55576	846.67102	-637.86465	-232.23534	1247.22734	-603.81658	-156.77614	1199.34100	-447.56858	-166.44108	1194.65631	-750.72757	-144.45851	1125.10066	-581.12596	-144.79214	1123.06650	-618.04243	-201.40377	1000.30255	-321.10035	-280.73612	901.91528	-325.17442	-229.69045	920.95457	-277.38088	-113.27689	937.47355	-353.65605	-54.28641	974.75591	-424.73077	-36.22413	935.10263	-412.56974	-219.96467	995.82765	-865.05258	-284.30665	881.15515	-836.34736	-250.81500	896.17565	-900.96985	-120.45077	917.11711	-828.60653	-53.73922	959.06193	-764.83059	-39.59946	915.77380	-763.41795	-393.45378	710.79355	-504.95222	-415.01978	717.66806	-694.27529	-388.28851	711.47009	-504.25476	-396.92853	715.73545	-664.28891	
345	3.44000000	-103.04156	461.75243	-412.63408	-53.27780	408.35326	-414.36270	-243.45937	96.05793	-428.97050	-308.80653	57.18531	-474.90461	-126.76365	40.32194	-389.28214	-85.79337	61.29402	-444.72354	-122.92710	458.25012	-772.90977	-99.68328	374.94290	-790.08128	-260.02686	96.71640	-751.33117	-323.98999	57.87343	-702.45188	-149.10365	41.38192	-791.74579	-101.97986	59.92273	-740.62559	-93.82775	299.98643	-430.39376	-121.14863	427.07875	-382.91009	-158.97250	317.33943	-378.86595	-179.93564	413.31532	-794.85892	-222.28211	299.69028	-792.11800	-251.78789	720.23936	-486.70039	-164.18135	654.46253	-467.10862	-168.66877	628.16036	-404.64760	-301.38854	682.28744	-395.16570	-215.91062	606.15024	-382.42146	-316.83722	708.21823	-779.59427	-222.82419	602.16996	-798.90914	-400.65891	632.15547	-769.35293	-305.30381	532.04661	-758.15023	-300.52286	790.58523	-472.64565	-482.72411	854.96742	-540.59203	-314.68577	781.21260	-715.38966	-487.90696	857.73208	-638.11690	-233.32805	1261.29413	-603.92654	-157.75390	1214.50806	-447.09568	-167.76111	1209.13358	-751.39993	-144.28627	1140.40327	-581.14118	-144.17896	1138.57089	-618.14802	-203.99131	1014.64901	-321.64432	-284.25037	917.06928	-326.86863	-233.12531	935.24925	-278.65251	-116.27142	950.49121	-354.45760	-56.57338	986.81585	-425.49963	-38.64955	947.39680	-412.95546	-223.09783	1009.92535	-865.02162	-288.31836	896.02564	-835.66197	-254.82846	910.38641	-900.25127	-123.68864	928.90565	-828.35253	-56.25532	969.41868	-764.52114	-42.63053	925.95389	-763.65955	-388.50010	722.16730	-504.97545	-409.65997	729.06332	-694.34333	-383.23547	722.58262	-504.03283	-391.75535	727.12686	-664.34490	
346	3.45000000	-105.99506	463.66219	-413.04179	-56.49214	410.43210	-414.80709	-243.63237	96.02951	-428.90363	-308.82559	57.19509	-474.90300	-126.79575	40.31389	-389.28860	-85.90225	61.27988	-444.81973	-125.81136	460.19067	-772.77494	-102.70022	376.66429	-790.04604	-260.34671	96.60062	-751.23692	-324.03482	57.85208	-702.49088	-149.11674	41.37007	-791.75315	-102.10913	60.02382	-740.69178	-96.16562	301.69907	-430.17103	-124.40308	428.69492	-383.33594	-161.74916	318.99972	-378.54261	-183.12778	414.40982	-794.93846	-224.90425	299.88502	-791.59222	-246.29816	727.31953	-486.41966	-161.15539	658.43712	-467.01931	-166.50110	632.14468	-404.58506	-297.53976	690.20200	-395.50133	-214.52975	611.41792	-382.74333	-311.95694	716.61739	-779.65357	-221.32477	607.56811	-798.93754	-398.00572	643.08114	-769.35780	-305.79007	540.16199	-758.57338	-295.72384	802.35680	-472.50652	-478.14209	865.92006	-540.86239	-309.46392	793.25091	-714.99999	-483.24453	868.72556	-638.40992	-234.72387	1275.49056	-604.39249	-158.86334	1229.70298	-446.71803	-169.17979	1223.52217	-751.97267	-141.38802	1157.12274	-581.37321	-143.00472	1155.02693	-617.89726	-206.68259	1029.07173	-322.27621	-287.85162	932.32285	-328.46522	-236.65369	949.61026	-280.00529	-119.37111	963.51710	-355.30563	-58.93094	998.78781	-426.34683	-41.54788	959.23369	-413.55958	-226.38528	1023.96329	-864.93942	-292.30421	910.83387	-834.85743	-259.01473	924.48167	-899.33284	-127.16850	940.70695	-828.42352	-58.72743	979.59311	-764.52518	-45.71762	935.77930	-763.96635	-383.37632	733.57251	-505.05170	-404.12035	740.52615	-694.46380	-377.99236	734.15548	-503.97641	-386.36818	738.76081	-664.10642	
